<?xml version="1.0" encoding="iso-8859-1"?>
<!-- Generator: Adobe Illustrator 19.0.0, SVG Export Plug-In . SVG Version: 6.00 Build 0)  -->
<svg version="1.1" id="Layer_1" xmlns="http://www.w3.org/2000/svg" xmlns:xlink="http://www.w3.org/1999/xlink" x="0px" y="0px"
	 viewBox="0 0 512.003 512.003" style="enable-background:new 0 0 512.003 512.003;" xml:space="preserve">
<g>
	<g>
		<path d="M142.308,211.928h-5.115H61.619h-5.115H0.002v15.209c0,54.812,44.592,99.404,99.404,99.404s99.404-44.592,99.404-99.404
			v-15.209H142.308z"/>
	</g>
</g>
<g>
	<g>
		<path d="M455.5,211.928h-5.115h-75.574h-5.115h-56.501v15.209c0,54.812,44.592,99.404,99.404,99.404
			c54.812,0,99.403-44.592,99.403-99.404v-15.209H455.5z"/>
	</g>
</g>
<g>
	<g>
		<rect x="101.169" y="459.087" width="309.668" height="52.916"/>
	</g>
</g>
<g>
	<g>
		<path d="M328.024,375.755H183.979c-29.177,0-52.915,23.737-52.915,52.914h249.873C380.938,399.492,357.2,375.755,328.024,375.755z
			"/>
	</g>
</g>
<g>
	<g>
		<path d="M421.688,94.351H298.729V41.745C298.729,18.727,280.002,0,256.985,0c-23.019,0-41.746,18.727-41.746,41.745v52.607H90.315
			l-46.876,87.161h34.538l21.428-39.844l21.428,39.842h34.538l-30.518-56.743h90.386v220.57h83.49V124.768h88.421l-30.518,56.743
			h34.538l21.428-39.843l21.428,39.843h34.538L421.688,94.351z"/>
	</g>
</g>
<g>
</g>
<g>
</g>
<g>
</g>
<g>
</g>
<g>
</g>
<g>
</g>
<g>
</g>
<g>
</g>
<g>
</g>
<g>
</g>
<g>
</g>
<g>
</g>
<g>
</g>
<g>
</g>
<g>
</g>
</svg>
